<?xml version="1.0" encoding="utf-8"?>
<!-- Generator: Adobe Illustrator 24.1.2, SVG Export Plug-In . SVG Version: 6.00 Build 0)  -->
<svg version="1.1" id="Layer_1" xmlns="http://www.w3.org/2000/svg" xmlns:xlink="http://www.w3.org/1999/xlink" x="0px" y="0px"
	 viewBox="0 0 21.6 24" style="enable-background:new 0 0 21.6 24;" xml:space="preserve">
<style type="text/css">
	.st0{fill:#FFFFFF;}
</style>
<g id="arrow-right" transform="translate(8.701 7.827)">
	<path id="arrow-right-2" class="st0" d="M2.5,16.1c0.1,0,0.2-0.1,0.3-0.2l9.8-9.8c0.4-0.4,0.4-1,0-1.4c-0.4-0.4-1-0.4-1.4,0
		l-8.2,8.2V-6.9c0-0.5-0.4-1-1-1c-0.5,0-1,0.4-1,1v19.7L-7,4.7c-0.4-0.4-1-0.4-1.4,0c-0.4,0.4-0.4,1,0,1.4c0,0,0,0,0,0l9.8,9.8
		C1.7,16.2,2.1,16.3,2.5,16.1L2.5,16.1z"/>
</g>
</svg>
