<?xml version="1.0" encoding="utf-8"?>
<!-- Generator: Adobe Illustrator 24.1.2, SVG Export Plug-In . SVG Version: 6.00 Build 0)  -->
<svg version="1.1" id="Layer_1" xmlns="http://www.w3.org/2000/svg" xmlns:xlink="http://www.w3.org/1999/xlink" x="0px" y="0px"
	 viewBox="0 0 1280 1280" style="enable-background:new 0 0 1280 1280;" xml:space="preserve">
<style type="text/css">
	.st0{fill:#EC5B2F;}
</style>
<g transform="translate(0.000000,1280.000000) scale(0.100000,-0.100000)">
	<path class="st0" d="M2380,12789c-344-33-683-134-985-293c-235-124-426-266-625-466c-446-445-706-1006-760-1636
		c-8-92-10-1256-8-4079c4-4358-2-3980,64-4273C285,1062,1061,285,2043,66c294-66-79-61,4357-61c3817,0,4021,1,4130,18
		c502,79,912,254,1283,550c465,371,792,892,921,1470c66,294,61-77,61,4347c0,4312,3,4064-52,4325c-106,508-343,946-713,1315
		c-413,413-877,645-1494,748c-93,15-405,17-4086,18C4258,12797,2427,12794,2380,12789z M10262,11800c174-11,308-37,449-86
		c541-188,935-637,1062-1208l22-101V6400V2395l-22-101c-127-571-522-1020-1062-1208c-57-20-149-46-205-59l-101-22H6400H2395l-101,22
		c-644,143-1124,623-1267,1267l-22,101v4005v4005l22,101c113,506,438,921,893,1138c201,95,377,141,595,155
		C2693,11811,10085,11812,10262,11800z"/>
	<path class="st0" d="M9930,10739c-367-56-637-384-617-749c7-121,26-193,79-300c58-117,187-247,305-308c215-111,460-111,676-1
		c108,56,245,191,299,294c136,262,111,559-67,793C10456,10666,10179,10777,9930,10739z"/>
	<path class="st0" d="M6110,10084c-905-83-1695-449-2320-1074c-412-412-712-897-894-1445c-129-389-186-746-186-1165
		c0-324,33-597,106-890c383-1533,1687-2647,3264-2790c148-13,492-13,640,0c1618,147,2941,1314,3289,2900c111,508,109,1060-5,1580
		c-233,1060-928,1967-1896,2474c-379,199-789,327-1248,392C6749,10081,6221,10094,6110,10084z M6741,9075c496-65,958-261,1349-571
		c109-87,327-305,414-414c315-397,514-874,577-1385c16-129,16-481,0-610c-40-322-122-598-266-890c-317-642-878-1135-1551-1360
		c-791-264-1656-154-2344,300c-220,145-466,368-624,565c-306,383-498,834-572,1345c-27,181-24,533,5,725c44,291,117,530,245,795
		c139,288,291,501,521,730c219,219,418,364,685,499c329,167,649,255,1050,290C6318,9102,6627,9090,6741,9075z"/>
</g>
</svg>
