<svg id="Layer_1" data-name="Layer 1" xmlns="http://www.w3.org/2000/svg" viewBox="0 0 264.18 144.57"><defs><style>.cls-1{fill:#623186;}.cls-2{fill:#f29123;}.cls-3{fill:#fff;}.cls-4{fill:none;stroke:#623186;stroke-miterlimit:10;stroke-width:3.21px;}.cls-5{fill:#772775;}</style></defs><path class="cls-1" d="M43.25,144.57H20.77c-4.42,0-7.66-2.9-9-7.32l-8.52-23.5C0,105.23,0,99.61,0,92.12V26.39c0-3.06.85-4.93,2.38-6.29l22-18.57A8.34,8.34,0,0,1,29.8,0H56c5.45,0,7.83,2.38,7.83,7.83V52.28l9.54-8c1.87-1.53,4.43-2.21,7.66-2.21h2.38V26.39c0-3.06.69-4.93,2-6.13l.17-.16L107.78,1.53c1.2-1,2.9-1.53,5.45-1.53H138.6c5.45,0,7.84,2.38,7.84,7.83V73.9c0,7.49,0,13.11-3.24,21.63l-8.51,23.16a12,12,0,0,1-3.41,5.61l-22,18.22a6.59,6.59,0,0,1-4.94,2H81.73c-4.6,0-8.17-2-9.53-6.3l-3.41-12.09L49.21,142.52a10.5,10.5,0,0,1-6,2"/><path class="cls-2" d="M138.6,1.7c4.26,0,6.13,1.88,6.13,6.13V73.9c0,7.32,0,12.77-3.06,21.12l-8.51,23.15c-1.2,3.41-3.24,6.13-6.82,6.13H103.7c-3.75,0-6.81-1.53-7.83-5.1L88,91.44c-.68-2.21-1.7-2.89-3.06-2.89H83.44c-1.37,0-2.39.68-3.07,2.89l-8,27.76c-1,3.4-3.58,5.1-7.15,5.1H42.74c-3.75,0-6.3-2.55-7.49-6.13L26.73,94.68c-3.06-8.35-3.06-13.8-3.06-21.12V7.83c0-4.25,1.87-6.13,6.13-6.13H56c4.26,0,6.13,1.88,6.13,6.13V70.49L72,49c1.87-3.92,4.59-5.28,9-5.28H88.2c4.43,0,7.15,1.36,9,5.28l9.87,21.45V7.83c0-4.25,1.71-6.13,6.13-6.13Z"/><path class="cls-3" d="M42.74,126c-4.43,0-7.66-2.9-9-7.32L25.2,95.19C22,86.67,22,81.05,22,73.56V7.84C22,2.38,24.35,0,29.8,0H56c5.45,0,7.83,2.38,7.83,7.84v55l6.64-14.47c2.22-4.6,5.28-6.3,10.56-6.3H88.2c5.28,0,8.35,1.7,10.56,6.3l6.64,14.47v-55c0-5.46,2.21-7.84,7.83-7.84H138.6c5.45,0,7.84,2.38,7.84,7.84V73.9c0,7.49,0,13.11-3.24,21.63l-8.51,23.16c-1.36,4.25-4.09,7.32-8.35,7.32H103.7c-4.6,0-8.18-2.05-9.54-6.3L86.33,92c-.17-1-.68-1.7-1.36-1.7H83.43c-.67,0-1.19.68-1.36,1.7l-8,27.76a8.67,8.67,0,0,1-8.85,6.3Z"/><path class="cls-2" d="M96.55,73.56l14,31.33c1,2.38,2.89,2.38,4.6,2.38H116a4.32,4.32,0,0,0,3.91-3.57l4.26-19.41C125,80,125,72.2,125,67.09V17h1.7V67.26c0,5.11,0,12.94-.84,17.2l-4.26,19.24c-.85,3.74-2.9,5.28-5.62,5.28h-1.19c-2,0-4.6-.51-5.62-2.9l-14-31.67c-2.73-6.13-4.26-7.15-7-7.15H80.54c-2.72,0-4.26,1-7,7.15l-14,31.67c-1,2.39-3.58,2.9-5.62,2.9h-1.2c-2.72,0-4.76-1.54-5.61-5.28L42.91,84.46c-.85-4.26-.85-12.09-.85-17.2V17h1.7V67.09c0,5.11,0,12.94.85,17.2l4.26,19.41a4.32,4.32,0,0,0,3.91,3.57h.86c1.7,0,3.57,0,4.6-2.38l14-31.33c2.89-6.47,4.76-8,8.34-8H88.2c3.58,0,5.45,1.53,8.35,8"/><path class="cls-4" d="M96.55,73.56l14,31.33c1,2.38,2.89,2.38,4.6,2.38H116a4.32,4.32,0,0,0,3.91-3.57l4.26-19.41C125,80,125,72.2,125,67.09V17h1.7V67.26c0,5.11,0,12.94-.84,17.2l-4.26,19.24c-.85,3.74-2.9,5.28-5.62,5.28h-1.19c-2,0-4.6-.51-5.62-2.9l-14-31.67c-2.73-6.13-4.26-7.15-7-7.15H80.54c-2.72,0-4.26,1-7,7.15l-14,31.67c-1,2.39-3.58,2.9-5.62,2.9h-1.2c-2.72,0-4.76-1.54-5.61-5.28L42.91,84.46c-.85-4.26-.85-12.09-.85-17.2V17h1.7V67.09c0,5.11,0,12.94.85,17.2l4.26,19.41a4.32,4.32,0,0,0,3.91,3.57h.86c1.7,0,3.57,0,4.6-2.38l14-31.33c2.89-6.47,4.76-8,8.34-8H88.2C91.78,65.56,93.65,67.09,96.55,73.56Z"/><path class="cls-1" d="M159.12,144.57c-5.45,0-7.83-2.39-7.83-7.84v-20.6c0-3.07.85-4.94,2.38-6.3l22-18.56a3.72,3.72,0,0,0,.85-.51V54.83h-14c-5.44,0-7.83-2.38-7.83-7.83V26.39c0-3.06.86-4.93,2.39-6.29L179,1.53A8.35,8.35,0,0,1,184.49,0h49.38c5.45,0,7.84,2.38,7.84,7.83v81.9h14.64c5.45,0,7.83,2.39,7.83,7.84v20.6c0,3.07-.85,4.94-2.38,6.3l-22.14,18.39a7.51,7.51,0,0,1-5.28,1.71Z"/><path class="cls-5" d="M233.87,0h-34.8c-4.42.41-6.38,2.83-6.38,7.77v20.6c0,5.46,2.38,7.84,7.83,7.84h14V89.67H197.11c-5.44,0-7.83,2.39-7.83,7.84v20.6c0,5.45,2.39,7.83,7.83,7.83H260l1.77-1.47c1.53-1.36,2.38-3.23,2.38-6.3V97.57c0-5.45-2.38-7.83-7.83-7.83H241.7V7.83c0-5.44-2.38-7.83-7.83-7.83"/><path class="cls-2" d="M181.09,124.3c-4.26,0-6.13-1.87-6.13-6.13V97.57c0-4.26,1.87-6.13,6.13-6.13h19.07V34.57H184.49c-4.26,0-6.13-1.87-6.13-6.13V7.83c0-4.25,1.87-6.13,6.13-6.13h49.38c4.26,0,6.13,1.88,6.13,6.13V91.44h16.35c4.25,0,6.13,1.87,6.13,6.13v20.6c0,4.26-1.88,6.13-6.13,6.13Z"/><path class="cls-3" d="M173.25,118.17V97.57c0-5.45,2.39-7.83,7.83-7.83h17.37V36.27h-14c-5.45,0-7.83-2.38-7.83-7.83V7.83C176.66,2.39,179,0,184.49,0h49.38c5.45,0,7.83,2.39,7.83,7.83V89.74h14.65c5.45,0,7.83,2.38,7.83,7.83v20.6c0,5.45-2.38,7.83-7.83,7.83H181.08c-5.44,0-7.83-2.38-7.83-7.83"/><polygon class="cls-2" points="190.28 108.13 219.23 108.13 219.23 18.73 193.69 18.73 193.69 17.03 220.93 17.03 220.93 108.13 247.15 108.13 247.15 109.83 190.28 109.83 190.28 108.13"/><polygon class="cls-4" points="190.28 108.13 219.23 108.13 219.23 18.73 193.69 18.73 193.69 17.03 220.93 17.03 220.93 108.13 247.15 108.13 247.15 109.83 190.28 109.83 190.28 108.13"/></svg>